<?xml version="1.0" encoding="utf-8"?>
<!-- Generator: Adobe Illustrator 16.0.4, SVG Export Plug-In . SVG Version: 6.00 Build 0)  -->
<!DOCTYPE svg PUBLIC "-//W3C//DTD SVG 1.1//EN" "http://www.w3.org/Graphics/SVG/1.1/DTD/svg11.dtd">
<svg version="1.1" id="Layer_1" xmlns="http://www.w3.org/2000/svg" xmlns:xlink="http://www.w3.org/1999/xlink" x="0px" y="0px"
	 width="220px" height="220px" viewBox="0 0 220 220" enable-background="new 0 0 220 220" xml:space="preserve">
<g>
	<path fill="#FFFFFF" d="M110,219.664L110,219.664C49.434,219.664,0.336,170.566,0.336,110C0.336,49.434,49.434,0.336,110,0.336
		c60.565,0,109.664,49.098,109.664,109.664C219.664,170.566,170.565,219.664,110,219.664"/>
	<path d="M164.371,110.016c-1.232-3.942-2.246-7.905-3.158-11.89c0.301-11.073-0.939-24.468-3.164-31.74
		c-4.289-13.145-13.057-19.603-25.184-26.709l-2.633-7.419c-0.979,1.07-1.795,2.261-2.542,3.501
		c-7.747-7.066-23.079-6.49-32.298-5.093c-14.35,2.052-27.23,8.783-33.966,21.669C56.156,62.583,54.4,73.125,54.4,84.544
		c0.268,5.625-0.162,11.965,2.442,17.04c-0.7,2.822-1.449,5.633-2.323,8.433c-4.097,12.881-8.489,25.475-9.076,38.943
		c-0.291,11.419,2.636,24.595,12.885,31.329c7.317,4.976,19.908,9.367,28.4,10.832c-1.756-5.856-5.856-11.71-5.27-17.857
		c4.979,1.756,9.075,6.147,14.64,6.73c1.17-2.928-0.294-6.439-0.877-9.076c3.514,0.588,5.854,3.514,9.366,4.102
		c1.627-6.777-3.232-16.277-5.358-23.23c-19.219-6.045-33.632-29.205-35.074-52.326c3.72-2.779,6.797-6.393,9.862-9.648
		c0,2.05,0,4.097,0.586,6.148c7.319-2.636,12.59-7.615,18.154-12.593c0.583,2.931,0.292,6.148,1.17,9.08
		c12.986-5.906,23.833-19.353,29.48-33.842c0.617,10.891,3.656,22.118,6.241,29.872c3.629,11.292,10.595,23.556,20.224,31.917
		c-6.008,14.627-16.927,26.699-30.123,31.113c-2.087,6.977-7.098,16.639-5.449,23.508c3.516-0.587,5.857-3.514,9.371-4.1
		c-0.586,2.635-2.049,6.147-0.879,9.074c5.562-0.582,9.662-4.977,14.642-6.73c0.583,6.148-3.513,12.002-5.271,17.857
		c8.489-1.465,21.08-5.855,28.401-10.832c10.25-6.734,13.177-19.91,12.884-31.33C172.861,135.49,168.47,122.896,164.371,110.016z"/>
</g>
</svg>
