<?xml version="1.0" encoding="utf-8"?>
<!-- Generator: Adobe Illustrator 16.0.4, SVG Export Plug-In . SVG Version: 6.00 Build 0)  -->
<!DOCTYPE svg PUBLIC "-//W3C//DTD SVG 1.1//EN" "http://www.w3.org/Graphics/SVG/1.1/DTD/svg11.dtd">
<svg version="1.1" id="Layer_1" xmlns="http://www.w3.org/2000/svg" xmlns:xlink="http://www.w3.org/1999/xlink" x="0px" y="0px"
	 width="136px" height="136px" viewBox="0 0 136 136" enable-background="new 0 0 136 136" xml:space="preserve">
<g>
	<circle fill="#FEAA3A" cx="68" cy="68" r="67.5"/>
	<g>
		<g>
			<path fill="#FFFFFF" d="M21.863,68.822l25.674,16.871c1.027,0.699,1.763,1.391,2.207,2.072s0.666,1.456,0.666,2.32
				c0,0.998-0.205,1.797-0.613,2.396c-0.409,0.599-0.976,0.898-1.699,0.898c-0.328,0-0.688-0.082-1.086-0.25
				c-0.397-0.166-0.957-0.498-1.68-0.998l-27.848-18.52c-0.093-0.031-0.21-0.1-0.35-0.199c-2.149-1.397-3.223-2.928-3.223-4.592
				s1.051-3.162,3.152-4.493c0.187-0.133,0.328-0.232,0.42-0.3l27.848-18.22c0.63-0.432,1.167-0.74,1.61-0.923
				c0.444-0.183,0.828-0.275,1.156-0.275c0.724,0,1.291,0.283,1.699,0.849c0.408,0.566,0.613,1.332,0.613,2.297
				c0,0.898-0.222,1.689-0.666,2.37c-0.444,0.684-1.18,1.357-2.207,2.022L21.863,68.822z"/>
			<path fill="#FFFFFF" d="M61.029,101.768c-0.514,1.662-0.998,2.795-1.453,3.393c-0.456,0.6-0.999,0.9-1.628,0.9
				c-0.655,0-1.227-0.344-1.716-1.023c-0.491-0.684-0.736-1.507-0.736-2.471c0-0.268,0.034-0.574,0.105-0.924
				c0.07-0.35,0.163-0.725,0.28-1.123l21.857-67.139c0.584-1.73,1.098-2.903,1.541-3.52c0.444-0.615,0.981-0.924,1.611-0.924
				c0.7,0,1.296,0.334,1.786,0.998c0.491,0.667,0.736,1.466,0.736,2.396c0,0.267-0.029,0.567-0.088,0.898
				c-0.059,0.333-0.146,0.649-0.262,0.949L61.029,101.768z"/>
			<path fill="#FFFFFF" d="M114.138,68.822L88.533,52.149c-1.074-0.699-1.834-1.39-2.277-2.071s-0.666-1.456-0.666-2.321
				c0-0.965,0.205-1.73,0.615-2.297c0.407-0.565,0.962-0.849,1.662-0.849c0.351,0,0.741,0.093,1.174,0.275
				c0.432,0.183,0.975,0.491,1.629,0.923l27.847,18.22c0.093,0.067,0.232,0.167,0.42,0.3c2.102,1.331,3.152,2.829,3.152,4.493
				c0,1.631-1.028,3.129-3.082,4.492c-0.233,0.133-0.397,0.233-0.49,0.299L90.67,92.133l-0.141,0.1
				c-1.213,0.766-2.102,1.148-2.662,1.148c-0.7,0-1.255-0.3-1.662-0.898c-0.41-0.6-0.615-1.398-0.615-2.396
				c0-0.864,0.223-1.639,0.666-2.32s1.203-1.373,2.277-2.072L114.138,68.822z"/>
		</g>
	</g>
</g>
</svg>
